<svg id="a79024bf-8f07-4035-9855-e15ec2ddf7d2" data-name="Layer 1" xmlns="http://www.w3.org/2000/svg" viewBox="0 0 64 64"><path d="M45,9.15a4.34,4.34,0,0,1,1.31,6.41L35.54,29.76v.29l17-2.26a4.35,4.35,0,0,1,4.88,3.74,5.44,5.44,0,0,1,0,.57v0a4.34,4.34,0,0,1-4.32,4.36,4.58,4.58,0,0,1-.53,0L35.54,34.4v.3L46.31,48.16a4.33,4.33,0,0,1-.68,6.1,4.14,4.14,0,0,1-.55.38l-.52.29a4.34,4.34,0,0,1-5.93-1.61,3.13,3.13,0,0,1-.22-.45L31.64,37h-.29L24,53a4.34,4.34,0,0,1-5.76,2.13Q18,55,17.7,54.85l0,0a4.35,4.35,0,0,1-1.32-6,3.62,3.62,0,0,1,.22-.32l10.85-14v-.29l-16.6,2.13A4.36,4.36,0,0,1,6,32.64a5.25,5.25,0,0,1,0-.56h0a4.34,4.34,0,0,1,4.34-4.34,3.52,3.52,0,0,1,.56,0L27.27,29.9v-.29L16.65,15.83a4.35,4.35,0,0,1,.79-6.09,3.74,3.74,0,0,1,.49-.32l.37-.22a4.35,4.35,0,0,1,5.93,1.62c.07.12.13.24.19.37L31.48,27h.29L38.7,11.09a4.35,4.35,0,0,1,5.72-2.25l.4.2Z"/></svg>