<?xml version="1.0" encoding="utf-8"?>
<!-- Generator: Adobe Illustrator 25.4.1, SVG Export Plug-In . SVG Version: 6.00 Build 0)  -->
<svg version="1.1"
	 id="svg13748" xmlns:cc="http://creativecommons.org/ns#" xmlns:dc="http://purl.org/dc/elements/1.1/" xmlns:inkscape="http://www.inkscape.org/namespaces/inkscape" xmlns:rdf="http://www.w3.org/1999/02/22-rdf-syntax-ns#" xmlns:sodipodi="http://sodipodi.sourceforge.net/DTD/sodipodi-0.dtd" xmlns:svg="http://www.w3.org/2000/svg"
	 xmlns="http://www.w3.org/2000/svg" xmlns:xlink="http://www.w3.org/1999/xlink" x="0px" y="0px" viewBox="0 0 32 32"
	 style="enable-background:new 0 0 32 32;" xml:space="preserve">
<g id="layer1" transform="translate(0,-288.53333)">
	<path id="path17263" d="M5,290.5v28h14.5c4.1,0,7.5-3.4,7.5-7.5c0-3.9-3-6.9-6.7-7.3c1.6-1.4,2.7-3.4,2.7-5.7
		c0-4.1-3.4-7.5-7.5-7.5H5z M7.7,293.1h7.6c2.8,0,4.9,2.2,4.9,4.9s-2.2,4.9-4.9,4.9H7.7L7.7,293.1z M7.9,306.1h7.6h3.6
		c2.8,0,5,2.2,5,4.9s-2.2,4.9-5,4.9H7.9L7.9,306.1z"/>
</g>
</svg>
