<?xml version="1.0" encoding="utf-8"?>
<!-- Generator: Adobe Illustrator 25.4.1, SVG Export Plug-In . SVG Version: 6.00 Build 0)  -->
<svg version="1.1"
	 id="svg13748" xmlns:cc="http://creativecommons.org/ns#" xmlns:dc="http://purl.org/dc/elements/1.1/" xmlns:inkscape="http://www.inkscape.org/namespaces/inkscape" xmlns:rdf="http://www.w3.org/1999/02/22-rdf-syntax-ns#" xmlns:sodipodi="http://sodipodi.sourceforge.net/DTD/sodipodi-0.dtd" xmlns:svg="http://www.w3.org/2000/svg"
	 xmlns="http://www.w3.org/2000/svg" xmlns:xlink="http://www.w3.org/1999/xlink" x="0px" y="0px" viewBox="0 0 32 32"
	 style="enable-background:new 0 0 32 32;" xml:space="preserve">
<g id="layer1" transform="translate(0,-288.53333)">
	<path id="path5289" d="M5,291.5c-1.6,0-3,1.4-3,3c0,1.6,1.4,3,3,3s3-1.4,3-3S6.6,291.5,5,291.5z M5,293.5c0.6,0,1,0.4,1,1
		s-0.4,1-1,1s-1-0.4-1-1S4.4,293.5,5,293.5z M10,293.5v2h20v-2H10z M5,301.5c-1.6,0-3,1.4-3,3c0,1.6,1.4,3,3,3s3-1.4,3-3
		C8,302.9,6.6,301.5,5,301.5z M5,303.5c0.6,0,1,0.4,1,1c0,0.6-0.4,1-1,1s-1-0.4-1-1C4,304,4.4,303.5,5,303.5z M10,303.5v2h20v-2H10z
		 M5,311.5c-1.6,0-3,1.4-3,3c0,1.6,1.4,3,3,3s3-1.4,3-3C8,312.9,6.6,311.5,5,311.5z M5,313.5c0.6,0,1,0.4,1,1c0,0.6-0.4,1-1,1
		s-1-0.4-1-1C4,314,4.4,313.5,5,313.5z M10,313.5v2h20v-2H10z"/>
</g>
</svg>
