<?xml version="1.0" encoding="utf-8"?>
<!-- Generator: Adobe Illustrator 26.0.1, SVG Export Plug-In . SVG Version: 6.00 Build 0)  -->
<svg version="1.1" id="ac5d5b5a-ee82-4c84-a4aa-887ff33c84cb"
	 xmlns="http://www.w3.org/2000/svg" xmlns:xlink="http://www.w3.org/1999/xlink" x="0px" y="0px" viewBox="0 0 64 64"
	 style="enable-background:new 0 0 64 64;" xml:space="preserve">
<path d="M23.1,44.2L10.8,31.9l-4.2,4.2l16.5,16.5l35.4-35.4L54.3,13L23.1,44.2z"/>
<g>
	<polygon points="3.1,32.5 7.3,28.4 8.8,26.8 8.8,8.7 51.5,8.7 54.3,5.9 57.9,9.5 60.8,12.4 60.8,8.7 60.8,2.9 60.8,2.9 55,2.9 
		55,2.9 2.9,2.9 2.9,2.9 2.9,32.7 	"/>
	<polygon points="55,27.8 55,54.9 27.9,54.9 26.6,56.1 23.1,59.6 19.6,56.1 18.3,54.9 8.8,54.9 8.8,45.4 3.1,39.6 2.9,39.5 
		2.9,54.9 2.9,60.7 8.8,60.7 55,60.7 60.8,60.7 60.8,60.7 60.8,21.9 	"/>
</g>
</svg>
