<?xml version="1.0" encoding="utf-8"?>
<!-- Generator: Adobe Illustrator 25.4.1, SVG Export Plug-In . SVG Version: 6.00 Build 0)  -->
<svg version="1.1"
	 id="svg13748" xmlns:cc="http://creativecommons.org/ns#" xmlns:dc="http://purl.org/dc/elements/1.1/" xmlns:inkscape="http://www.inkscape.org/namespaces/inkscape" xmlns:rdf="http://www.w3.org/1999/02/22-rdf-syntax-ns#" xmlns:sodipodi="http://sodipodi.sourceforge.net/DTD/sodipodi-0.dtd" xmlns:svg="http://www.w3.org/2000/svg"
	 xmlns="http://www.w3.org/2000/svg" xmlns:xlink="http://www.w3.org/1999/xlink" x="0px" y="0px" viewBox="0 0 32 32"
	 style="enable-background:new 0 0 32 32;" xml:space="preserve">
<g>
	<path d="M20.5,26.5v-1.2l1.5-1.5c3.6-3.4,5.2-5.3,5.3-7.4c0-1.4-0.7-2.8-2.8-2.8c-1.3,0-2.3,0.7-3,1.2l-0.6-1.3
		c1-0.8,2.4-1.4,4-1.4c3,0,4.3,2.1,4.3,4.1c0,2.6-1.9,4.7-4.9,7.6l-1.1,1v0h6.3v1.6H20.5z"/>
</g>
<path d="M4.7,5.5l0,8.8l10.2,0V5.5l2.7,0l0,21h-2.7v-9.9l-10.2,0l0,9.9H2l0-21L4.7,5.5z"/>
</svg>
