<svg id="bacfba01-5c39-4ed7-8fd8-a473947473bf" data-name="Layer 1" xmlns="http://www.w3.org/2000/svg" viewBox="0 0 21 21"><path d="M13.5,8a.5.5,0,0,0-.5.5V10H8V8.5a.5.5,0,0,0-1,0V10H2V8.5a.5.5,0,0,0-1,0v9.2A1.3,1.3,0,0,0,2.3,19H12.7A1.3,1.3,0,0,0,14,17.7V8.5A.5.5,0,0,0,13.5,8ZM8,11h5v3H8V11ZM7,11v3H2V11ZM2,17.7V15H7v3H2.3A.3.3,0,0,1,2,17.7Zm10.7.3H8V15h5v2.7A.29.29,0,0,1,12.7,18Z"/><path d="M19.5,1.8H7.5a.5.5,0,0,0-.5.5v4a.5.5,0,0,0,.5.5h12a.5.5,0,0,0,.5-.5v-4A.5.5,0,0,0,19.5,1.8Zm-.5,4H8v-3H19Z"/><path d="M1,4.5a.42.42,0,0,0,.11.16l2,2a.46.46,0,0,0,.35.14.46.46,0,0,0,.35-.14.5.5,0,0,0,0-.71L2.71,4.8H5.5A.5.5,0,0,0,6,4.3a.5.5,0,0,0-.5-.5H2.71L3.85,2.66a.5.5,0,0,0,0-.71.5.5,0,0,0-.7,0l-2,2A.42.42,0,0,0,1,4.11.53.53,0,0,0,1,4.5Z"/></svg>