<svg id="b4ce8041-a03f-4b20-b753-74fd124825fd" data-name="Layer 1" xmlns="http://www.w3.org/2000/svg" viewBox="0 0 21 21"><g style="opacity:0.5"><rect x="2" y="4.29" width="11" height="3.1" transform="translate(15 11.69) rotate(180)"/></g><path d="M13.5,17a.5.5,0,0,0-.5.5v1.2a.29.29,0,0,1-.3.3H8V17.5a.5.5,0,0,0-1,0V19H2.3a.29.29,0,0,1-.3-.3V17.5a.5.5,0,0,0-1,0v1.2A1.3,1.3,0,0,0,2.3,20H12.7A1.3,1.3,0,0,0,14,18.7V17.5A.5.5,0,0,0,13.5,17Z"/><path d="M1.5,10.52A.5.5,0,0,0,2,10V8.39H7V10a.5.5,0,0,0,1,0V8.39h5V10a.5.5,0,0,0,1,0V1.79a.5.5,0,1,0-1,0v1.5H8V1.79a.5.5,0,1,0-1,0v1.5H2V1.79a.5.5,0,0,0-1,0V10A.5.5,0,0,0,1.5,10.52ZM8,4.29h5v3.1H8Zm-6,0H7v3.1H2Z"/><path d="M19.5,11.2H7.5a.5.5,0,0,0-.5.5v4a.5.5,0,0,0,.5.5h12a.5.5,0,0,0,.5-.5v-4A.5.5,0,0,0,19.5,11.2Zm-.5,4H8v-3H19Z"/><path d="M1.15,14.05l2,2a.48.48,0,0,0,.7,0,.5.5,0,0,0,0-.71L2.71,14.2H5.5a.5.5,0,0,0,.5-.5.5.5,0,0,0-.5-.5H2.71l1.14-1.15a.5.5,0,0,0,0-.71.5.5,0,0,0-.7,0l-2,2A.42.42,0,0,0,1,13.5a.53.53,0,0,0,0,.39A.42.42,0,0,0,1.15,14.05Z"/></svg>