<svg id="a1a67ac3-0485-47a9-9241-8fd475cc47e3" data-name="Layer 1" xmlns="http://www.w3.org/2000/svg" viewBox="0 0 21 21"><g style="opacity:0.5"><rect x="2" y="13.9" width="11" height="3.1" transform="translate(15 30.9) rotate(-180)"/></g><path d="M1.5,4.29a.5.5,0,0,0,.5-.5V2.59a.3.3,0,0,1,.3-.3H7v1.5a.5.5,0,0,0,1,0V2.29h4.7a.3.3,0,0,1,.3.3v1.2a.5.5,0,0,0,1,0V2.59a1.3,1.3,0,0,0-1.3-1.3H2.3A1.3,1.3,0,0,0,1,2.59v1.2A.5.5,0,0,0,1.5,4.29Z"/><path d="M13.5,10.77a.5.5,0,0,0-.5.5V12.9H8V11.27a.5.5,0,0,0-1,0V12.9H2V11.27a.5.5,0,0,0-1,0V19.5a.5.5,0,0,0,1,0V18H7v1.5a.5.5,0,0,0,1,0V18h5v1.5a.5.5,0,0,0,1,0V11.27A.5.5,0,0,0,13.5,10.77ZM7,17H2V13.9H7Zm6,0H8V13.9h5Z"/><path d="M19.5,5.1H7.5a.5.5,0,0,0-.5.5v4a.5.5,0,0,0,.5.5h12a.5.5,0,0,0,.5-.5v-4A.5.5,0,0,0,19.5,5.1Zm-.5,4H8v-3H19Z"/><path d="M1.15,8l2,2a.48.48,0,0,0,.7,0,.5.5,0,0,0,0-.71L2.71,8.1H5.5A.5.5,0,0,0,6,7.6a.5.5,0,0,0-.5-.5H2.71L3.85,6a.5.5,0,0,0,0-.71.5.5,0,0,0-.7,0l-2,2A.45.45,0,0,0,1,7.41a.5.5,0,0,0,0,.38A.36.36,0,0,0,1.15,8Z"/></svg>