<svg id="a38a2034-ff7e-48c9-b0b2-cf448f75bb65" data-name="Layer 1" xmlns="http://www.w3.org/2000/svg" viewBox="0 0 21 21"><path d="M1.5,12.8a.5.5,0,0,0,.5-.5V10.8H7v1.5a.5.5,0,0,0,1,0V10.8h5v1.5a.5.5,0,0,0,1,0V3.1a1.3,1.3,0,0,0-1.3-1.3H2.3A1.3,1.3,0,0,0,1,3.1v9.2A.5.5,0,0,0,1.5,12.8ZM7,9.8H2v-3H7v3Zm1,0v-3h5v3Zm5-6.7V5.8H8v-3h4.7A.3.3,0,0,1,13,3.1ZM2.3,2.8H7v3H2V3.1A.3.3,0,0,1,2.3,2.8Z"/><path d="M19.5,14H7.5a.5.5,0,0,0-.5.5v4a.5.5,0,0,0,.5.5h12a.5.5,0,0,0,.5-.5v-4A.5.5,0,0,0,19.5,14ZM19,18H8V15H19Z"/><path d="M5.5,16H2.71l1.14-1.15a.49.49,0,1,0-.7-.7l-2,2a.36.36,0,0,0-.11.16.5.5,0,0,0,0,.38.36.36,0,0,0,.11.16l2,2a.48.48,0,0,0,.7,0,.48.48,0,0,0,0-.7L2.71,17H5.5a.5.5,0,0,0,0-1Z"/></svg>