<?xml version="1.0" encoding="utf-8"?>
<!-- Generator: Adobe Illustrator 25.4.1, SVG Export Plug-In . SVG Version: 6.00 Build 0)  -->
<svg version="1.1"
	 id="svg13748" xmlns:cc="http://creativecommons.org/ns#" xmlns:dc="http://purl.org/dc/elements/1.1/" xmlns:inkscape="http://www.inkscape.org/namespaces/inkscape" xmlns:rdf="http://www.w3.org/1999/02/22-rdf-syntax-ns#" xmlns:sodipodi="http://sodipodi.sourceforge.net/DTD/sodipodi-0.dtd" xmlns:svg="http://www.w3.org/2000/svg"
	 xmlns="http://www.w3.org/2000/svg" xmlns:xlink="http://www.w3.org/1999/xlink" x="0px" y="0px" viewBox="0 0 32 32"
	 style="enable-background:new 0 0 32 32;" xml:space="preserve">
<g id="layer1" transform="translate(0,-288.53333)">
	<path id="path9972" d="M23.8,290.3c-1.6,0-3.3,0.7-4.6,1.9l-6.1,6l1.5,1.5l6.1-6c1.8-1.8,4.4-1.8,6.1,0c1.8,1.8,1.8,4.4,0,6.1
		l-6.1,6l1.5,1.5l6.1-6c2.5-2.5,2.5-6.7,0-9.2C27.1,290.9,25.4,290.3,23.8,290.3z M21.8,297.2L8.7,310.3l1.5,1.5l13.1-13.1
		L21.8,297.2z M9.8,301.5l-6.1,6c-2.5,2.5-2.5,6.7,0,9.2c2.5,2.5,6.7,2.5,9.2,0l6.1-6l-1.5-1.5l-6.1,6c-1.8,1.8-4.4,1.8-6.1,0
		s-1.8-4.4,0-6.1l6.1-6L9.8,301.5z"/>
</g>
</svg>
