<svg id="a7c7dcd4-bca6-4aae-aa69-e9942b3341be" data-name="Layer 1" xmlns="http://www.w3.org/2000/svg" viewBox="0 0 21 21"><path d="M9.72-5.55h24v24h-24Z" style="fill:none"/><path d="M17.48.82a.89.89,0,0,0-.62.26L15.23,2.7,18.57,6l1.62-1.63a.88.88,0,0,0,0-1.25L18.11,1.08A.87.87,0,0,0,17.48.82Z"/><path d="M14.28,3.65,4.45,13.48v3.34H7.78L17.61,7ZM7.05,15H6.23v-.82l8-8L15.1,7Z"/><path d="M12.22,14.15v1.67H10.55l-1,1h2.67v2.7a.3.3,0,0,1-.3.3H7.22V18.33h0v-.25h-1v1.75H1.52a.29.29,0,0,1-.3-.3V18.33h0v-1.5h2v-1h-2v-3H3.35l1-1H1.22V9.12a.3.3,0,0,1,.3-.3h4.7V10l1-1V8.82h.13l1-1H1.52a1.3,1.3,0,0,0-1.3,1.3v1.19h0v9.2a1.3,1.3,0,0,0,1.3,1.3h10.4a1.3,1.3,0,0,0,1.3-1.3V18.33h0V13.15Z"/></svg>