<?xml version="1.0" encoding="utf-8"?>
<!-- Generator: Adobe Illustrator 25.4.1, SVG Export Plug-In . SVG Version: 6.00 Build 0)  -->
<svg version="1.1"
	 id="svg13748" xmlns:cc="http://creativecommons.org/ns#" xmlns:dc="http://purl.org/dc/elements/1.1/" xmlns:inkscape="http://www.inkscape.org/namespaces/inkscape" xmlns:rdf="http://www.w3.org/1999/02/22-rdf-syntax-ns#" xmlns:sodipodi="http://sodipodi.sourceforge.net/DTD/sodipodi-0.dtd" xmlns:svg="http://www.w3.org/2000/svg"
	 xmlns="http://www.w3.org/2000/svg" xmlns:xlink="http://www.w3.org/1999/xlink" x="0px" y="0px" viewBox="0 0 32 32"
	 style="enable-background:new 0 0 32 32;" xml:space="preserve">
<path id="path5289" d="M10,5v2h20V5H10z M10,15v2h20v-2H10z M10,25v2h20v-2H10z"/>
<g>
	<path d="M4.4,5.7L4.4,5.7L2.7,6.6L2.3,5.2l2.3-1.2h1.5v9.6H4.4V5.7z"/>
</g>
<g>
	<path d="M1,28v-1.1l1.1-1.1c2.3-2.1,3.3-3.2,3.3-4.5c0-0.9-0.5-1.6-1.7-1.6c-0.8,0-1.6,0.4-2,0.8l-0.5-1.3c0.7-0.5,1.7-1,2.9-1
		c2.1,0,3.2,1.3,3.2,2.9c0,1.7-1.2,3-2.9,4.6l-0.8,0.7v0h3.9V28H1z"/>
</g>
</svg>
