<?xml version="1.0" encoding="utf-8"?>
<!-- Generator: Adobe Illustrator 25.4.1, SVG Export Plug-In . SVG Version: 6.00 Build 0)  -->
<svg version="1.1"
	 id="svg13748" xmlns:cc="http://creativecommons.org/ns#" xmlns:dc="http://purl.org/dc/elements/1.1/" xmlns:inkscape="http://www.inkscape.org/namespaces/inkscape" xmlns:rdf="http://www.w3.org/1999/02/22-rdf-syntax-ns#" xmlns:sodipodi="http://sodipodi.sourceforge.net/DTD/sodipodi-0.dtd" xmlns:svg="http://www.w3.org/2000/svg"
	 xmlns="http://www.w3.org/2000/svg" xmlns:xlink="http://www.w3.org/1999/xlink" x="0px" y="0px" viewBox="0 0 32 32"
	 style="enable-background:new 0 0 32 32;" xml:space="preserve">
<g id="layer1" transform="translate(0,-288.53333)">
	<path id="rect10541" d="M12.5,290.5c-4.1,0-7.5,3.4-7.5,7.5c0,2.2,0.9,4.1,2.4,5.5H2v2c9.3,0,18.7,0,28,0v-2c-5.8,0-11.7,0-17.5,0
		c-3.1,0-5.5-2.4-5.5-5.5s2.4-5.5,5.5-5.5H26v-2H12.5z M23.8,307.5c0.8,0.9,1.2,2.2,1.2,3.5c0,3.1-2.4,5.5-5.5,5.5H6v2h13.5
		c4.1,0,7.5-3.4,7.5-7.5c0-1.3-0.3-2.5-0.9-3.5H23.8z"/>
</g>
</svg>
